# Blender v2.78 (sub 0) OBJ File: 'car.blend'
# www.blender.org
mtllib car.mtl
o Cube
v 1.372124 0.152918 -1.887270
v 1.372124 0.152918 1.887270
v -1.372125 0.152918 1.887269
v -1.372124 0.152918 -1.887271
v 1.372125 0.270500 -1.887269
v 1.372123 0.270500 1.887271
v -1.372125 0.270500 1.887269
v -1.372124 0.270500 -1.887270
v 2.025816 0.741241 -1.887270
v 2.025816 0.741241 1.887270
v 2.025816 0.858823 -1.887269
v 2.025815 0.858823 1.887271
v 2.766666 0.741241 -1.887270
v 2.766666 0.741241 1.887270
v 2.766667 0.858823 -1.887269
v 2.766665 0.858823 1.887271
v 3.398567 0.152918 -1.887270
v 3.398567 0.152918 1.887270
v 3.398568 0.270500 -1.887269
v 3.398566 0.270500 1.887271
v -2.030019 0.926453 1.887270
v -2.030018 0.926453 -1.887271
v -2.030020 1.044035 1.887269
v -2.030018 1.044035 -1.887270
v -3.405260 0.926453 1.887270
v -3.405259 0.926453 -1.887271
v -3.405260 1.044035 1.887269
v -3.405259 1.044035 -1.887270
v -4.074049 0.152918 1.887269
v -4.074048 0.152918 -1.887271
v -4.074049 0.270500 1.887269
v -4.074048 0.270500 -1.887270
v 1.372124 0.152918 -0.943635
v 1.372124 0.152918 0.000000
v 1.372124 0.152918 0.943635
v -1.372124 0.152918 0.943634
v -1.372124 0.152918 -0.000001
v -1.372124 0.152918 -0.943635
v 2.025816 0.741241 -0.943635
v 2.025816 0.741241 0.000000
v 2.025816 0.741241 0.943635
v 2.766666 0.741241 -0.943635
v 2.766666 0.741241 0.000000
v 2.766666 0.741241 0.943635
v 3.398567 0.152918 -0.943635
v 3.398567 0.152918 0.000000
v 3.398567 0.152918 0.943635
v -2.030019 0.926453 0.943634
v -2.030018 0.926453 -0.000001
v -2.030018 0.926453 -0.943636
v -3.405260 0.926453 0.943634
v -3.405259 0.926453 -0.000001
v -3.405259 0.926453 -0.943636
v -4.074049 0.152918 0.943634
v -4.074048 0.152918 -0.000001
v -4.074048 0.152918 -0.943635
v -1.372124 0.152918 0.943634
v -1.372124 0.152918 -0.943635
v -4.074049 0.152918 0.943634
v -4.074048 0.152918 -0.943635
v 3.180670 -0.144358 0.943635
v 1.372124 -0.144358 0.943635
v 3.180670 -0.144358 -0.943635
v 1.372124 -0.144358 -0.943635
v 1.372124 0.152918 -0.943635
v 1.372124 0.152918 0.000000
v 1.372124 0.152918 0.943635
v -1.372124 0.152918 -0.000001
v -1.372124 0.152918 0.943634
v -1.372124 0.152918 -0.943635
v 1.372124 0.152918 -0.943635
v 1.372124 0.152918 0.943635
v -1.372124 0.152918 0.943634
v -1.372124 0.152918 -0.943635
v 1.372124 0.152918 -0.943635
v 1.372124 0.152918 0.943635
v -1.372124 0.152918 0.943634
v -1.372124 0.152918 -0.943635
v 1.372124 0.152918 -0.943635
v 1.372124 0.152918 0.943635
v -1.372124 0.152918 0.943634
v -1.372124 0.152918 -0.943635
v 1.372124 -0.144358 -0.943635
v 1.372124 -0.144358 0.000000
v 1.372124 -0.144358 0.943635
v -1.372124 -0.144358 0.943634
v -1.372124 -0.144358 -0.000001
v -1.372124 -0.144358 -0.943635
v 1.372124 -0.144358 -0.943635
v -1.372124 -0.144358 -0.943635
v 1.372124 -0.144358 0.943635
v -1.372124 -0.144358 0.943634
v -1.372124 -0.144358 -0.943635
v -3.928783 -0.144358 -0.943635
v -3.928784 -0.144358 0.943634
v -1.372124 -0.144358 0.943634
v 1.372125 0.270500 -1.132361
v 1.372124 0.270500 -0.377453
v 1.372124 0.270500 0.377455
v 1.372124 0.270500 1.132363
v -1.372125 0.270500 1.132361
v -1.372125 0.270500 0.377454
v -1.372124 0.270500 -0.377454
v -1.372124 0.270500 -1.132362
v 2.025816 0.858823 -1.132361
v 2.025816 0.858823 -0.377453
v 2.025815 0.858823 0.377455
v 2.025815 0.858823 1.132363
v -2.030019 1.044035 1.132362
v -2.030019 1.044035 0.377454
v -2.030019 1.044035 -0.377454
v -2.030019 1.044035 -1.132362
v 1.372125 0.270500 -1.132361
v 1.372124 0.270500 -0.377453
v 1.372124 0.270500 0.377455
v 1.372124 0.270500 1.132363
v -1.372125 0.270500 1.132361
v -1.372125 0.270500 0.377454
v -1.372124 0.270500 -0.377454
v -1.372124 0.270500 -1.132362
v 1.267597 1.067196 -1.001033
v 1.267596 1.067196 1.001035
v -1.372125 1.067196 1.132361
v -1.372124 1.067196 -1.132362
v 2.025815 0.855305 -0.770530
v -2.030018 1.037010 -1.523777
v -2.030019 1.037010 1.523776
v 2.025815 0.855305 0.770533
v -2.477477 1.246801 -1.523777
v -1.813607 1.246801 -1.132362
v -1.813608 1.246801 1.132361
v -2.477478 1.246801 1.523776
v -3.405260 1.044035 1.631346
v -3.405260 1.044035 -1.631347
v 1.267597 1.067196 -1.001033
v 1.267596 1.067196 1.001035
v 1.267597 1.067196 -1.001033
v 1.267596 1.067196 1.001035
vn 0.0000 -1.0000 -0.0000
vn 0.0000 1.0000 0.0000
vn -0.6690 0.7433 -0.0000
vn -0.0000 -0.0000 1.0000
vn -0.7617 -0.6479 -0.0000
vn 0.0000 0.0000 -1.0000
vn 0.6690 -0.7433 0.0000
vn 0.6814 0.7319 0.0000
vn 1.0000 0.0000 0.0000
vn -0.6814 -0.7319 0.0000
vn 0.7617 0.6479 0.0000
vn -0.7565 0.6540 -0.0000
vn -1.0000 -0.0000 -0.0000
vn 0.7565 -0.6540 0.0000
vn -0.7618 -0.6479 -0.0000
vn 0.8065 -0.5912 0.0000
vn -0.8985 -0.4390 -0.0000
vn 0.0243 0.0837 -0.9962
vn 0.5113 0.0000 -0.8594
vn 0.2691 0.9631 0.0000
vn 0.6667 -0.7453 0.0000
vn 0.0243 0.0837 0.9962
vn 0.3267 0.7459 0.5804
vn -0.7588 -0.6513 -0.0000
vn 0.5113 0.0000 0.8594
vn 0.3349 0.1959 -0.9217
vn 0.3349 0.1959 0.9217
vn 0.0777 0.1658 0.9831
vn 0.3768 0.9263 0.0000
vn 0.3267 0.7459 -0.5804
vn -0.0051 -1.0000 -0.0000
vn 0.0777 0.1658 -0.9831
vn -0.2135 0.9769 -0.0000
usemtl carmat
s off
f 35//1 2//1 3//1 36//1
f 100//2 101//2 7//2 6//2
f 100//3 6//3 12//3 108//3
f 2//4 6//4 7//4 3//4
f 36//5 3//5 21//5 48//5
f 5//6 1//6 4//6 8//6
f 12//4 10//4 14//4 16//4
f 6//4 2//4 10//4 12//4
f 1//6 5//6 11//6 9//6
f 33//7 1//7 9//7 39//7
f 15//8 16//8 20//8 19//8
f 39//1 9//1 13//1 42//1
f 11//2 105//2 106//2 107//2 108//2 12//2 16//2 15//2
f 9//6 11//6 15//6 13//6
f 17//9 19//9 20//9 18//9 47//9 46//9 45//9
f 13//6 15//6 19//6 17//6
f 16//4 14//4 18//4 20//4
f 42//10 13//10 17//10 45//10
f 24//6 22//6 26//6 28//6
f 3//4 7//4 23//4 21//4
f 104//11 8//11 24//11 112//11
f 8//6 4//6 22//6 24//6
f 27//12 28//12 32//12 31//12
f 48//1 21//1 25//1 51//1
f 23//2 109//2 110//2 111//2 112//2 24//2 28//2 27//2
f 21//4 23//4 27//4 25//4
f 29//13 31//13 32//13 30//13 56//13 55//13 54//13
f 25//4 27//4 31//4 29//4
f 28//6 26//6 30//6 32//6
f 51//14 25//14 29//14 54//14
f 26//14 53//14 56//14 30//14
f 53//14 52//14 55//14 56//14
f 52//14 51//14 54//14 55//14
f 22//1 50//1 53//1 26//1
f 50//1 49//1 52//1 53//1
f 49//1 48//1 51//1 52//1
f 14//10 44//10 47//10 18//10
f 44//10 43//10 46//10 47//10
f 43//10 42//10 45//10 46//10
f 10//1 41//1 44//1 14//1
f 41//1 40//1 43//1 44//1
f 40//1 39//1 42//1 43//1
f 2//7 35//7 41//7 10//7
f 35//7 34//7 40//7 41//7
f 34//7 33//7 39//7 40//7
f 4//5 38//5 50//5 22//5
f 38//5 37//5 49//5 50//5
f 37//15 36//15 48//15 49//15
f 1//1 33//1 38//1 4//1
f 38//4 82//4 90//4 88//4
f 53//6 50//6 38//6 56//6
f 51//6 48//6 36//6 54//6
f 54//4 56//4 60//4 59//4
f 58//9 57//9 96//9 93//9
f 36//4 54//4 59//4 57//4
f 38//4 36//4 57//4 58//4
f 56//4 38//4 58//4 60//4
f 44//4 41//4 35//4 47//4
f 42//4 39//4 33//4 45//4
f 45//16 47//16 61//16 63//16
f 62//1 64//1 63//1 61//1
f 47//4 35//4 62//4 61//4
f 35//13 33//13 64//13 62//13
f 33//6 45//6 63//6 64//6
f 35//4 34//4 66//4 67//4
f 58//4 57//4 69//4 70//4
f 33//4 35//4 67//4 65//4
f 33//4 34//4 66//4 65//4
f 37//4 34//4 66//4 68//4
f 70//4 69//4 77//4 78//4
f 36//4 35//4 72//4 73//4
f 38//4 33//4 71//4 74//4
f 65//4 67//4 76//4 75//4
f 35//4 36//4 81//4 80//4
f 38//4 33//4 79//4 82//4
f 91//1 92//1 86//1 87//1 88//1 90//1 89//1 83//1 84//1 85//1
f 34//9 35//9 85//9 84//9
f 81//4 36//4 86//4 92//4
f 35//4 80//4 91//4 85//4
f 82//6 79//6 89//6 90//6
f 36//13 37//13 87//13 86//13
f 79//4 33//4 83//4 89//4
f 33//9 34//9 84//9 83//9
f 80//4 81//4 92//4 91//4
f 37//13 38//13 88//13 87//13
f 93//1 96//1 95//1 94//1
f 60//6 58//6 93//6 94//6
f 59//17 60//17 94//17 95//17
f 57//4 59//4 95//4 96//4
f 7//11 101//11 109//11 23//11
f 101//11 102//11 110//11 109//11
f 102//11 103//11 111//11 110//11
f 103//11 104//11 112//11 111//11
f 5//3 97//3 105//3 11//3
f 97//3 98//3 106//3 105//3
f 98//3 99//3 107//3 106//3
f 99//3 100//3 108//3 107//3
f 5//2 8//2 104//2 97//2
f 104//4 103//4 119//4 120//4
f 99//4 98//4 114//4 115//4
f 97//4 104//4 120//4 113//4
f 101//4 100//4 116//4 117//4
f 102//4 101//4 117//4 118//4
f 100//4 99//4 115//4 116//4
f 98//4 97//4 113//4 114//4
f 103//4 102//4 118//4 119//4
f 123//2 122//2 121//2 124//2
f 113//18 120//18 124//18 121//18
f 124//19 120//19 126//19
f 121//20 122//20 128//20 125//20
f 116//21 115//21 114//21 113//21 125//21 128//21
f 117//22 116//22 122//22 123//22
f 127//23 123//23 131//23 132//23
f 119//24 118//24 117//24 127//24 126//24 120//24
f 117//25 123//25 127//25
f 113//26 121//26 125//26
f 122//27 116//27 128//27
f 131//2 130//2 129//2 132//2
f 127//28 132//28 133//28
f 123//29 124//29 130//29 131//29
f 124//30 126//30 129//30 130//30
f 126//31 127//31 133//31 134//31
f 129//32 126//32 134//32
f 132//33 129//33 134//33 133//33
f 122//4 121//4 137//4 138//4
l 121 135
l 122 136
